<?xml version="1.0" standalone="no"?>
<!DOCTYPE svg PUBLIC "-//W3C//DTD SVG 20010904//EN"
 "http://www.w3.org/TR/2001/REC-SVG-20010904/DTD/svg10.dtd">
<svg version="1.0" xmlns="http://www.w3.org/2000/svg"
 width="2560.000000pt" height="2560.000000pt" viewBox="0 0 2560.000000 2560.000000"
 preserveAspectRatio="xMidYMid meet">
<metadata>
Created by potrace 1.14, written by Peter Selinger 2001-2017
</metadata>
<g transform="translate(0.000000,2560.000000) scale(0.100000,-0.100000)"
fill="#000000" stroke="none">
<path d="M7290 12801 c0 -4888 2 -5510 15 -5515 8 -3 15 0 15 7 0 8 3 8 8 2 9
-13 341 -13 361 0 9 5 12 4 8 -1 -7 -12 214 -11 233 1 8 5 11 4 7 -1 -7 -12
214 -11 233 1 8 5 11 4 7 -2 -7 -12 133 -10 153 2 8 5 11 4 7 -1 -7 -12 214
-11 233 1 8 5 11 4 7 -1 -7 -12 214 -11 233 1 8 5 11 4 7 -2 -7 -12 133 -10
153 2 8 5 11 4 7 -1 -7 -12 214 -11 233 1 8 5 11 4 7 -1 -7 -12 214 -11 233 1
8 5 11 4 7 -2 -7 -12 133 -10 153 2 8 5 11 4 7 -1 -7 -12 214 -11 233 1 8 5
11 4 7 -2 -9 -14 95 -12 105 2 5 7 8 7 8 0 0 -12 579 -13 599 0 9 5 12 4 8 -1
-7 -12 214 -11 233 1 7 5 11 4 7 -1 -7 -12 773 -11 792 0 8 6 12 5 8 0 -7 -12
294 -11 313 1 7 5 11 4 7 -1 -7 -12 533 -11 552 1 9 5 12 4 8 -1 -7 -12 214
-11 233 1 8 5 11 4 7 -2 -9 -14 95 -12 105 2 5 7 8 7 8 0 0 -12 659 -13 679 0
8 5 12 4 8 -1 -7 -12 294 -11 313 1 7 5 11 4 7 -1 -7 -12 533 -11 552 1 9 5
12 4 8 -1 -7 -12 214 -11 233 1 7 5 11 4 7 -1 -7 -12 693 -11 712 0 9 6 12 5
8 0 -7 -12 214 -11 233 1 8 5 11 4 7 -1 -7 -12 214 -11 233 1 8 5 11 4 7 -2
-7 -12 133 -10 153 2 8 5 11 4 7 -1 -7 -12 214 -11 233 1 8 5 11 4 7 -1 -7
-12 214 -11 233 1 8 5 11 4 7 -2 -7 -12 133 -10 153 2 8 5 11 4 7 -1 -7 -12
214 -11 233 1 8 5 11 4 7 -1 -7 -12 214 -11 233 1 8 5 11 4 7 -2 -7 -12 133
-10 153 2 8 5 11 4 7 -1 -7 -12 214 -11 233 1 7 5 11 4 7 -1 -3 -5 156 -9 386
-9 l392 0 0 152 c0 89 -3 149 -9 146 -5 -4 -6 0 -1 7 12 19 13 320 1 313 -5
-4 -6 0 -1 7 12 19 13 320 1 313 -5 -4 -6 0 0 8 11 19 12 799 0 792 -5 -4 -6
0 -1 7 12 19 13 240 1 233 -5 -4 -6 -1 -1 8 12 19 13 559 1 552 -5 -4 -6 0 -1
7 12 19 13 320 1 313 -5 -4 -6 0 -1 7 12 19 13 320 1 313 -5 -4 -6 0 -1 7 12
19 13 320 1 313 -5 -4 -6 0 0 8 11 19 12 799 0 792 -5 -4 -6 0 -1 7 12 19 13
240 1 233 -5 -4 -6 -1 -1 8 12 19 13 559 1 552 -5 -4 -6 0 -1 7 12 19 13 320
1 313 -5 -4 -6 0 -1 7 12 19 13 320 1 313 -5 -4 -6 0 -1 7 12 19 13 320 1 313
-5 -4 -6 0 0 8 11 19 12 799 0 792 -5 -4 -6 0 -1 7 12 19 13 240 1 233 -5 -4
-6 -1 -1 8 12 19 13 559 1 552 -5 -4 -6 0 -1 7 12 19 13 320 1 313 -5 -4 -6 0
-1 7 12 19 13 320 1 313 -5 -4 -6 0 -1 7 12 19 13 320 1 313 -5 -4 -6 0 0 8
11 19 12 799 0 792 -5 -4 -6 0 -1 7 12 19 13 240 1 233 -5 -4 -6 -1 -1 8 12
19 13 559 1 552 -5 -4 -6 0 -1 7 12 19 13 320 1 313 -5 -4 -6 0 0 8 4 7 8 118
9 246 l0 233 -5512 0 -5513 0 0 -5509z"/>
</g>
</svg>
